<?xml version="1.0" encoding="UTF-8"?>
<svg width="158px" height="155px" viewBox="0 0 158 155" version="1.1" xmlns="http://www.w3.org/2000/svg" xmlns:xlink="http://www.w3.org/1999/xlink">
    <!-- Generator: Sketch 47.1 (45422) - http://www.bohemiancoding.com/sketch -->
    <title>Group</title>
    <desc>Created with Sketch.</desc>
    <defs>
        <filter x="-2.5%" y="-15.0%" width="105.0%" height="132.5%" filterUnits="objectBoundingBox" id="filter-1">
            <feOffset dx="0" dy="0" in="SourceAlpha" result="shadowOffsetOuter1"></feOffset>
            <feGaussianBlur stdDeviation="2" in="shadowOffsetOuter1" result="shadowBlurOuter1"></feGaussianBlur>
            <feColorMatrix values="0 0 0 0 0   0 0 0 0 0   0 0 0 0 0  0 0 0 0.4 0" type="matrix" in="shadowBlurOuter1" result="shadowMatrixOuter1"></feColorMatrix>
            <feMerge>
                <feMergeNode in="shadowMatrixOuter1"></feMergeNode>
                <feMergeNode in="SourceGraphic"></feMergeNode>
            </feMerge>
        </filter>
    </defs>
    <g id="Page-1" stroke="none" stroke-width="1" fill="none" fill-rule="evenodd">
        <g id="Artboard">
            <g id="Group" filter="url(#filter-1)" transform="translate(61.680680, 61.680680) rotate(-45.000000) translate(-61.680680, -61.680680) translate(-57.874876, 41.680680)">
                <polygon id="bg-(-winner-)" fill="#FFC337" points="39.1025173 0.515279807 200.008594 0.515279807 238.426401 40 1.42108547e-13 40"></polygon>
                <path d="M82.0621588,18.8454861 L82.1316032,18.8454861 L84.2409782,26.6666667 L87.2444505,26.6666667 L90.5170199,14.140625 L87.2270893,14.140625 L85.534381,22.6041667 L85.4649366,22.6041667 L83.3729227,14.140625 L80.8208393,14.140625 L78.7288255,22.6041667 L78.659381,22.6041667 L76.9666727,14.140625 L73.6767421,14.140625 L76.9493116,26.6666667 L79.9527838,26.6666667 L82.0621588,18.8454861 Z M98.5604227,26.6666667 L98.5604227,14.140625 L95.3746588,14.140625 L95.3746588,26.6666667 L98.5604227,26.6666667 Z M107.029173,26.6666667 L107.029173,19.3142361 L107.098617,19.3142361 L112.437159,26.6666667 L114.95452,26.6666667 L114.95452,14.140625 L111.933687,14.140625 L111.933687,21.4236111 L111.864242,21.4236111 L106.551742,14.140625 L104.008339,14.140625 L104.008339,26.6666667 L107.029173,26.6666667 Z M123.42327,26.6666667 L123.42327,19.3142361 L123.492714,19.3142361 L128.831256,26.6666667 L131.348617,26.6666667 L131.348617,14.140625 L128.327784,14.140625 L128.327784,21.4236111 L128.258339,21.4236111 L122.945839,14.140625 L120.402437,14.140625 L120.402437,26.6666667 L123.42327,26.6666667 Z M145.381603,24.0972222 L139.982298,24.0972222 L139.982298,21.5451389 L145.060423,21.5451389 L145.060423,19.2013889 L139.982298,19.2013889 L139.982298,16.7100694 L145.381603,16.7100694 L145.381603,14.140625 L136.796534,14.140625 L136.796534,26.6666667 L145.381603,26.6666667 L145.381603,24.0972222 Z M153.919798,16.5451389 L153.919798,20.1041667 L155.786117,20.1041667 C156.957992,20.1041667 157.652437,19.4184028 157.652437,18.3333333 C157.652437,17.265625 156.914589,16.5451389 155.777437,16.5451389 L153.919798,16.5451389 Z M153.919798,22.2829861 L153.919798,26.6666667 L150.734034,26.6666667 L150.734034,14.140625 L156.098617,14.140625 C159.223617,14.140625 160.907645,15.6857639 160.907645,18.2725694 C160.907645,19.8090278 160.135075,21.2152778 158.763548,21.8142361 L161.272228,26.6666667 L157.695839,26.6666667 L155.543062,22.2829861 L153.919798,22.2829861 Z" id="WINNER" fill="#866400"></path>
            </g>
        </g>
    </g>
</svg>